<svg xmlns="http://www.w3.org/2000/svg" xmlns:xlink="http://www.w3.org/1999/xlink" width="24" height="24" viewBox="0 0 24 24">
  <defs>
    <clipPath id="clip-path">
      <rect id="Rectangle_1" data-name="Rectangle 1" width="24" height="24" fill="current"/>
    </clipPath>
  </defs>
  <g id="baby" clip-path="url(#clip-path)">
    <path id="Path_1" data-name="Path 1" d="M23.125.849a2.87,2.87,0,0,0-4.678.9,2.877,2.877,0,0,0-3.474.452l-.673.673-1.1-1.1a1.254,1.254,0,0,0-1.772,0L9.825,3.38a1.252,1.252,0,0,0,0,1.772l.65.65C6.534,7.757,4.724,9.9,1.156,13.464a3.787,3.787,0,0,0,0,5.359l4.066,4.066a3.787,3.787,0,0,0,5.359,0c3.56-3.56,5.706-5.376,7.661-9.319l.56.56h0a1.254,1.254,0,0,0,1.772,0l1.605-1.605a1.254,1.254,0,0,0,0-1.772l-1.1-1.1.673-.673a2.877,2.877,0,0,0,.451-3.476A2.868,2.868,0,0,0,23.125.849ZM9.587,21.895a2.382,2.382,0,0,1-3.371,0L2.15,17.829a2.382,2.382,0,0,1,0-3.371c3.573-3.573,5.383-5.732,9.378-7.6l5.661,5.661C15.316,16.518,13.149,18.332,9.587,21.895Zm10.1-8.867L10.927,4.266l1.389-1.389,8.762,8.762ZM21.3,4.313a.944.944,0,0,0-.535,1.6,1.467,1.467,0,0,1,0,2.072l-.673.673L15.294,3.866l.673-.673a1.467,1.467,0,0,1,2.072,0,.945.945,0,0,0,1.6-.536A1.461,1.461,0,1,1,21.3,4.313Z" fill="current"/>
    <path id="Path_2" data-name="Path 2" d="M9.136,13.409a.7.7,0,0,0-.994.994l1.5,1.5a.7.7,0,0,0,.994-.994Z" fill="current"/>
    <path id="Path_3" data-name="Path 3" d="M10.458,11.092a.7.7,0,0,0,0,.994l1.5,1.5a.7.7,0,0,0,.994-.994l-1.5-1.5A.7.7,0,0,0,10.458,11.092Z" fill="current"/>
    <path id="Path_4" data-name="Path 4" d="M6.819,15.726a.7.7,0,0,0-.994.994l1.5,1.5a.7.7,0,0,0,.994-.994Z" fill="current"/>
  </g>
</svg>
