<svg xmlns="http://www.w3.org/2000/svg" xmlns:xlink="http://www.w3.org/1999/xlink" width="24" height="24" viewBox="0 0 24 24">
  <defs>
    <clipPath id="clip-path">
      <rect id="Rectangle_2" data-name="Rectangle 2" width="24" height="24" fill="current"/>
    </clipPath>
  </defs>
  <g id="beauty" clip-path="url(#clip-path)">
    <path id="Path_5" data-name="Path 5" d="M12.981,11.179h3.834a2,2,0,0,1,2,2V22a2,2,0,0,1-2,2H12.981Zm1.406,1.406V22.594h3.021V12.586Z" fill="current" fill-rule="evenodd"/>
    <path id="Path_6" data-name="Path 6" d="M12.981,11.179h3.834a2,2,0,0,1,2,2v2.38H12.981Zm1.406,1.406v1.568h3.021a1.568,1.568,0,0,0-1.568-1.568Z" fill="current" fill-rule="evenodd"/>
    <path id="Path_7" data-name="Path 7" d="M5.186,13.179a2,2,0,0,1,2-2h7.2V24h-7.2a2,2,0,0,1-2-2Zm1.406-.594V22.594H12.98V12.586Z" fill="current" fill-rule="evenodd"/>
    <path id="Path_8" data-name="Path 8" d="M13.257,2.306v10.28H6.315V3.864H7.722v7.315h4.129V2.306Z" fill="current" fill-rule="evenodd"/>
    <path id="Path_9" data-name="Path 9" d="M5.186,13.179a2,2,0,0,1,2-2h7.2v4.362h-9.2Zm1.406-.594v1.55H12.98v-1.55Z" fill="current" fill-rule="evenodd"/>
    <path id="Path_10" data-name="Path 10" d="M10.5,1.545h0L8.124,3.082h0a.874.874,0,0,0,.945,1.471h0l2.38-1.537h0A.874.874,0,0,0,10.5,1.545ZM9.743.363A2.281,2.281,0,0,1,12.211,4.2h0L9.83,5.736h0A2.281,2.281,0,0,1,7.362,1.9h0L9.742.363Z" fill="current" fill-rule="evenodd"/>
    <path id="Path_11" data-name="Path 11" d="M12.146,17.149a3.055,3.055,0,0,0,.835-2.311h1.406a4.45,4.45,0,0,1-1.248,3.307,6.735,6.735,0,0,1-3.181,1.594,5.731,5.731,0,0,0-2.547,1.116A3.083,3.083,0,0,0,6.592,23.3a1.212,1.212,0,0,1-1.271-1.4A3.841,3.841,0,0,1,6.45,19.828a7.031,7.031,0,0,1,3.165-1.453A5.379,5.379,0,0,0,12.146,17.149Z" fill="current" fill-rule="evenodd"/>
  </g>
</svg>
