<svg xmlns="http://www.w3.org/2000/svg" xmlns:xlink="http://www.w3.org/1999/xlink" width="24" height="24" viewBox="0 0 24 24">
  <defs>
    <clipPath id="clip-path">
      <rect id="Rectangle_127" data-name="Rectangle 127" width="24" height="24" fill="current"/>
    </clipPath>
  </defs>
  <g id="blouse" clip-path="url(#clip-path)">
    <path id="Path_45" data-name="Path 45" d="M17.875,2.293a.469.469,0,0,1,.523-.407,4.781,4.781,0,0,1,4.19,4.744V19.487a1.875,1.875,0,0,1-1.61,1.856l-2.087.3a.469.469,0,0,1-.133-.928l2.087-.3.066.464-.066-.464a.937.937,0,0,0,.8-.928V6.63a3.843,3.843,0,0,0-3.368-3.814A.469.469,0,0,1,17.875,2.293Z" fill="current" fill-rule="evenodd"/>
    <path id="Path_46" data-name="Path 46" d="M16.392.173a.469.469,0,0,1-.067.659L12.283,4.127a.469.469,0,0,1-.592-.727L15.733.1a.469.469,0,0,1,.659.068Z" fill="current" fill-rule="evenodd"/>
    <path id="Path_47" data-name="Path 47" d="M15.733.1a.469.469,0,0,1,.591,0l2.325,1.883a.469.469,0,0,1,.084.641L16.626,5.515l-.379-.276.379.276a2.478,2.478,0,0,1-4.043-.057l.383-.263-.383.263L11.6,4.029a.469.469,0,0,1,.09-.629Zm.3.967L12.618,3.854l.738,1.073-.386.266.386-.266a1.54,1.54,0,0,0,2.513.035l1.844-2.527Z" fill="current" fill-rule="evenodd"/>
    <path id="Path_48" data-name="Path 48" d="M22.583,18.758a.469.469,0,0,1-.4.53l-3.3.471a.469.469,0,1,1-.133-.928l3.295-.471a.469.469,0,0,1,.533.4Z" fill="current" fill-rule="evenodd"/>
    <path id="Path_49" data-name="Path 49" d="M12,3.279a.469.469,0,0,1,.469.469V7.529a.469.469,0,1,1-.938,0V3.747A.469.469,0,0,1,12,3.279Z" fill="current" fill-rule="evenodd"/>
    <path id="Path_50" data-name="Path 50" d="M12,3.279a.469.469,0,0,1,.469.469V7.529a.469.469,0,1,1-.938,0V3.747A.469.469,0,0,1,12,3.279Z" fill="current" fill-rule="evenodd"/>
    <path id="Path_51" data-name="Path 51" d="M6.125,2.293a.469.469,0,0,1-.407.523A3.843,3.843,0,0,0,2.35,6.63V19.487a.937.937,0,0,0,.8.928l-.066.464.066-.464,2.087.3a.469.469,0,0,1-.133.928l-2.087-.3a1.875,1.875,0,0,1-1.61-1.856V6.63A4.78,4.78,0,0,1,5.6,1.886a.469.469,0,0,1,.525.407Z" fill="current" fill-rule="evenodd"/>
    <path id="Path_52" data-name="Path 52" d="M7.608.173a.469.469,0,0,1,.66-.067L12.31,3.4a.469.469,0,0,1-.592.727L7.675.832A.469.469,0,0,1,7.608.173Z" fill="current" fill-rule="evenodd"/>
    <path id="Path_53" data-name="Path 53" d="M7.676.1a.469.469,0,0,1,.591,0L12.31,3.4a.469.469,0,0,1,.09.629l-.982,1.429h0a2.478,2.478,0,0,1-4.043.057l.379-.276-.379.276L5.267,2.628a.469.469,0,0,1,.084-.641ZM6.287,2.435,8.132,4.962a1.54,1.54,0,0,0,2.513-.035h0l.738-1.073L7.97,1.073Z" fill="current" fill-rule="evenodd"/>
    <path id="Path_54" data-name="Path 54" d="M1.417,18.758a.469.469,0,0,1,.53-.4l3.295.471a.469.469,0,1,1-.133.928l-3.3-.471a.469.469,0,0,1-.4-.528Z" fill="current" fill-rule="evenodd"/>
    <path id="Path_55" data-name="Path 55" d="M12,3.279a.469.469,0,0,1,.469.469V7.529a.469.469,0,1,1-.938,0V3.747A.469.469,0,0,1,12,3.279Z" fill="current" fill-rule="evenodd"/>
    <path id="Path_56" data-name="Path 56" d="M12,3.279a.469.469,0,0,1,.469.469V7.529a.469.469,0,1,1-.938,0V3.747A.469.469,0,0,1,12,3.279Z" fill="current" fill-rule="evenodd"/>
    <path id="Path_57" data-name="Path 57" d="M7.544.469A.469.469,0,0,1,8.013,0h7.975a.469.469,0,0,1,0,.938H8.013A.469.469,0,0,1,7.544.469Z" fill="current" fill-rule="evenodd"/>
    <path id="Path_58" data-name="Path 58" d="M2.724,3.4a.469.469,0,0,1,.62.235L5.6,8.663a.469.469,0,0,1,.041.192V22.314a6.12,6.12,0,0,0,5.887-.011V20.7a.469.469,0,0,1,.938,0V22.59a.469.469,0,0,1-.25.415,7.121,7.121,0,0,1-7.275,0,.469.469,0,0,1-.234-.406V8.956L2.488,4.02a.469.469,0,0,1,.236-.62Z" fill="current" fill-rule="evenodd"/>
    <path id="Path_59" data-name="Path 59" d="M21.277,3.4a.469.469,0,0,1,.235.62L19.294,8.956V22.59A.469.469,0,0,1,19.06,23a7.121,7.121,0,0,1-7.279,0,.469.469,0,0,1-.25-.415V20.707a.469.469,0,0,1,.938,0v1.6a6.12,6.12,0,0,0,5.887.011V8.855a.469.469,0,0,1,.041-.192l2.259-5.027a.469.469,0,0,1,.621-.236Z" fill="current" fill-rule="evenodd"/>
  </g>
</svg>
