<svg xmlns="http://www.w3.org/2000/svg" width="24" height="24" viewBox="0 0 24 24">
  <path id="home-object" d="M23.9,9.172a3.345,3.345,0,0,0-2.519-2.431c-.1-.021-.2-.017-.3-.029A8.614,8.614,0,0,0,12.668,0H11.334A8.615,8.615,0,0,0,2.92,6.712,3.287,3.287,0,0,0,0,10a3.337,3.337,0,0,0,1.333,2.653v6.014a2.658,2.658,0,0,0,1.333,2.3V22a2,2,0,0,0,4,0v-.667H17.335V22a2,2,0,0,0,4,0V20.962a2.658,2.658,0,0,0,1.333-2.3V12.654A3.334,3.334,0,0,0,23.9,9.172ZM11.333,1.333h1.333a7.285,7.285,0,0,1,7.068,5.482A3.276,3.276,0,0,0,17.333,10v3.333H6.667V10.143a3.464,3.464,0,0,0-2.4-3.331A7.286,7.286,0,0,1,11.333,1.333Zm7.333,14A.667.667,0,0,1,18,16H6a.667.667,0,0,1,0-1.333H18A.667.667,0,0,1,18.667,15.333ZM5.333,22A.667.667,0,1,1,4,22v-.667H5.333ZM20,22a.667.667,0,0,1-1.333,0v-.667H20Zm1.665-10.279a.666.666,0,0,0-.331.576v6.37A1.335,1.335,0,0,1,20,20H4a1.335,1.335,0,0,1-1.333-1.333V12.3a.668.668,0,0,0-.331-.576,1.978,1.978,0,0,1-1-1.721,2,2,0,0,1,2.34-1.972,2.1,2.1,0,0,1,1.66,2.115v3.314A2,2,0,0,0,6,17.333H18a2,2,0,0,0,.667-3.877V10a2,2,0,1,1,3,1.721Z" fill="current"/>
</svg>
