<svg width="20" height="24" viewBox="0 0 20 24" fill="none" xmlns="http://www.w3.org/2000/svg">
<path d="M15.3069 7.49128C11.023 4.88498 13.0319 1.20638 13.1181 1.05347C13.2432 0.835875 13.2428 0.568172 13.1171 0.350953C12.9914 0.133734 12.7595 0 12.5085 0C10.3033 0 8.57656 0.626531 7.37614 1.86225C5.32494 3.97373 5.42009 7.26 5.46069 8.66334C5.46519 8.81878 5.46908 8.95312 5.46908 9.05288C5.46908 10.0948 5.63624 11.0567 5.78375 11.9054C5.87881 12.4523 5.96089 12.9246 5.97547 13.296C5.99108 13.6935 5.91852 13.7846 5.91542 13.7882C5.90506 13.8005 5.81881 13.8464 5.58561 13.8464C5.31964 13.8464 5.12356 13.7595 4.94985 13.5647C4.27128 12.8039 4.22436 10.7263 4.35411 9.59597C4.37731 9.39666 4.31427 9.19697 4.18081 9.04716C4.04741 8.89734 3.85635 8.81166 3.65572 8.81166C1.83017 8.81166 0.466064 11.797 0.466064 14.4663C0.466064 15.7211 0.718439 16.9503 1.2162 18.1197C1.69742 19.2502 2.38363 20.2706 3.25583 21.1523C5.07233 22.9887 7.46731 24 9.99969 24C12.5422 24 14.9366 23.003 16.7418 21.1927C18.5422 19.387 19.5338 16.9981 19.5338 14.4662C19.5337 11.2355 17.006 8.52492 15.3069 7.49128ZM9.99969 22.5938C5.59424 22.5938 1.87236 18.8718 1.87236 14.4662C1.87236 13.3948 2.12802 12.2701 2.57375 11.3806C2.67786 11.1728 2.78469 10.9946 2.89011 10.8444C2.90188 12.0044 3.08563 13.5857 3.89914 14.4993C4.33799 14.9921 4.92116 15.2526 5.58566 15.2526C6.20642 15.2526 6.67949 15.0645 6.99158 14.6934C7.57508 13.9997 7.39597 12.9692 7.16928 11.6646C7.03152 10.8719 6.87538 9.97345 6.87538 9.05283C6.87538 8.93269 6.8712 8.78902 6.86642 8.62256C6.82794 7.29328 6.74783 4.52723 8.38484 2.84212C9.1197 2.08561 10.1457 1.6252 11.4437 1.46766C11.2971 1.95422 11.1708 2.57189 11.1659 3.26348C11.1552 4.7873 11.738 6.96609 14.576 8.69269C15.9491 9.52805 18.1275 11.8342 18.1275 14.4662C18.1275 18.9478 14.4814 22.5938 9.99969 22.5938Z" fill="url(#paint0_linear_1614_257)"/>
<defs>
<linearGradient id="paint0_linear_1614_257" x1="21.8219" y1="9.24" x2="-0.297816" y2="14.8887" gradientUnits="userSpaceOnUse">
<stop stop-color="#D72339"/>
<stop offset="1" stop-color="#F23B51"/>
</linearGradient>
</defs>
</svg>
