<svg xmlns="http://www.w3.org/2000/svg" xmlns:xlink="http://www.w3.org/1999/xlink" width="24" height="24" viewBox="0 0 24 24">
  <defs>
    <clipPath id="shop-svg">
      <rect id="Rectangle_4" data-name="Rectangle 4" width="24" height="24" transform="translate(1002 514)" fill="current"/>
    </clipPath>
  </defs>
  <g id="Mask_Group_2" data-name="Mask Group 2" transform="translate(-1002 -514)" clip-path="url(shop-svg)">
    <path id="Union_1" data-name="Union 1" d="M-93.447,1c-5.439,0-7.76-2.321-7.76-7.76v-5.132a.57.57,0,0,1,.062-.259,4.291,4.291,0,0,1-.825-3.078l.31-3.141v-.023c.462-3.315,1.9-4.607,5.117-4.607h12.3c3.222,0,4.657,1.292,5.116,4.607v.021l.319,3.143a4.294,4.294,0,0,1-.8,3.042.569.569,0,0,1,.082.3v5.131c0,5.44-2.321,7.761-7.76,7.761Zm5.372-1.144V-2.428c0-1.6-.684-2.286-2.286-2.286s-2.286.684-2.286,2.286V-.144Zm-11.989-6.617c0,4.708,1.707,6.529,6.274,6.614V-2.428a3.466,3.466,0,0,1,.88-2.548,3.469,3.469,0,0,1,2.549-.881,3.466,3.466,0,0,1,2.548.88,3.466,3.466,0,0,1,.88,2.548V-.147c4.558-.088,6.263-1.909,6.263-6.613v-4.4a4.292,4.292,0,0,1-2.481.736h0a4.473,4.473,0,0,1-3.673-2.054,3.967,3.967,0,0,1-.535.752,3.961,3.961,0,0,1-3,1.3h0a3.961,3.961,0,0,1-3-1.3,3.967,3.967,0,0,1-.56-.8,4.45,4.45,0,0,1-3.7,2.1,4.29,4.29,0,0,1-2.434-.7Zm6.843-7.976a2.878,2.878,0,0,0,1.327,2.766,2.879,2.879,0,0,0,3.068,0,2.879,2.879,0,0,0,1.34-2.279c-.005-.036-.01-.072-.015-.109l-.749-7.5-4.257,0Zm-6.178-6.33a4.578,4.578,0,0,0-1.126,2.82l-.307,3.13a3.148,3.148,0,0,0,.788,2.506,3.148,3.148,0,0,0,2.412,1.039,3.283,3.283,0,0,0,3.2-2.9l.737-7.385h-2.849a4.068,4.068,0,0,0-.415-.021A4.069,4.069,0,0,0-99.4-21.066Zm16.246,9.492a3.15,3.15,0,0,0,2.412-1.038,3.153,3.153,0,0,0,.787-2.506l-.319-3.131a4.578,4.578,0,0,0-1.126-2.82,4.069,4.069,0,0,0-2.855-.791l-2.8,0,.693,7.007a3.952,3.952,0,0,1,.026.568A3.306,3.306,0,0,0-83.153-11.574Z" transform="translate(1103.993 537)" fill="current"/>
  </g>
</svg>
