<svg xmlns="http://www.w3.org/2000/svg" xmlns:xlink="http://www.w3.org/1999/xlink" width="24" height="24" viewBox="0 0 24 24">
  <defs>
    <clipPath id="clip-path">
      <rect id="Rectangle_4" data-name="Rectangle 4" width="24" height="24" fill="current"/>
    </clipPath>
  </defs>
  <g id="sport" clip-path="url(#clip-path)">
    <path id="Path_19" data-name="Path 19" d="M23.664,14.184a.7.7,0,0,0-.106-.989,12.077,12.077,0,0,0-1.4-.975l-.359.6.359-.6A11.979,11.979,0,0,0,11.771,11.3a.7.7,0,0,0,.5,1.316,10.573,10.573,0,0,1,9.171.813,10.685,10.685,0,0,1,1.237.861A.7.7,0,0,0,23.664,14.184Z" fill="current" fill-rule="evenodd"/>
    <path id="Path_20" data-name="Path 20" d="M9.631,18.167a.7.7,0,0,0-.046-.993,20.425,20.425,0,0,1-3.149-3.652A19.5,19.5,0,0,1,3.348,6.114a.7.7,0,0,0-1.384.249A20.908,20.908,0,0,0,5.271,14.31h0a21.832,21.832,0,0,0,3.366,3.9A.7.7,0,0,0,9.631,18.167Z" fill="current" fill-rule="evenodd"/>
    <path id="Path_21" data-name="Path 21" d="M11.415,23.718a.7.7,0,0,0,.992.067,20.906,20.906,0,0,0,5.12-6.918,21.756,21.756,0,0,0,1.682-5.211.7.7,0,1,0-1.383-.257,20.349,20.349,0,0,1-1.574,4.874h0a19.5,19.5,0,0,1-4.77,6.453A.7.7,0,0,0,11.415,23.718Z" fill="current" fill-rule="evenodd"/>
    <path id="Path_22" data-name="Path 22" d="M4.421,21.132a.7.7,0,0,0,.916.388,11.95,11.95,0,0,0,5.793-4.972h0a11.966,11.966,0,0,0,1.583-4.495.7.7,0,1,0-1.393-.193,10.61,10.61,0,0,1-6.511,8.357A.7.7,0,0,0,4.421,21.132Z" fill="current" fill-rule="evenodd"/>
    <path id="Path_23" data-name="Path 23" d="M12.55,12.438a.7.7,0,0,0-.112-.988,10.573,10.573,0,0,1-4-8.292,10.694,10.694,0,0,1,.106-1.5.7.7,0,0,0-1.392-.2,12.1,12.1,0,0,0-.12,1.7,11.979,11.979,0,0,0,4.531,9.392A.7.7,0,0,0,12.55,12.438Z" fill="current" fill-rule="evenodd"/>
    <path id="Path_24" data-name="Path 24" d="M7.642,6.883a.7.7,0,0,0,.9.415,20.348,20.348,0,0,1,4.992-1.145h0a19.5,19.5,0,0,1,7.986.79.7.7,0,1,0,.436-1.337A20.907,20.907,0,0,0,13.4,4.755,21.753,21.753,0,0,0,8.058,5.98.7.7,0,0,0,7.642,6.883Z" fill="current" fill-rule="evenodd"/>
    <path id="Path_25" data-name="Path 25" d="M0,12A12,12,0,1,0,12,0,12,12,0,0,0,0,12ZM12,22.594A10.594,10.594,0,1,1,22.594,12,10.594,10.594,0,0,1,12,22.594Z" fill="current" fill-rule="evenodd"/>
  </g>
</svg>
